<?xml version="1.0" encoding="utf-8"?>
<!-- Generator: Adobe Illustrator 16.0.0, SVG Export Plug-In . SVG Version: 6.00 Build 0)  -->
<!DOCTYPE svg PUBLIC "-//W3C//DTD SVG 1.1//EN" "http://www.w3.org/Graphics/SVG/1.1/DTD/svg11.dtd" [
	<!ENTITY ns_flows "http://ns.adobe.com/Flows/1.0/">
	<!ENTITY ns_extend "http://ns.adobe.com/Extensibility/1.0/">
	<!ENTITY ns_ai "http://ns.adobe.com/AdobeIllustrator/10.0/">
	<!ENTITY ns_graphs "http://ns.adobe.com/Graphs/1.0/">
]>
<svg version="1.1" id="Layer_1" xmlns:x="&ns_extend;" xmlns:i="&ns_ai;" xmlns:graph="&ns_graphs;"
	 xmlns="http://www.w3.org/2000/svg" xmlns:xlink="http://www.w3.org/1999/xlink" xmlns:a="http://ns.adobe.com/AdobeSVGViewerExtensions/3.0/"
	 x="0px" y="0px" width="171.941px" height="44.798px" viewBox="0 0 171.941 44.798" enable-background="new 0 0 171.941 44.798"
	 xml:space="preserve">
<path fill="#060E9F" d="M62.965,20.591C62.965,9.248,48.871,0,31.484,0C14.099,0,0.003,9.248,0.003,20.591
	C0.003,20.884,0,21.693,0,21.795c0,12.037,12.32,21.782,31.48,21.782c19.279,0,31.485-9.744,31.485-21.778V20.591z"/>
<path fill="#009EE2" d="M61.759,20.58c0,10.696-13.551,19.365-30.269,19.365c-16.719,0-30.271-8.669-30.271-19.365
	c0-10.695,13.552-19.364,30.271-19.364C48.208,1.216,61.759,9.885,61.759,20.58"/>
<path fill="#FFFFFF" d="M21.438,14.471c-0.015,0.03-0.317,0.343-0.122,0.594c0.479,0.61,1.954,0.959,3.445,0.626
	c0.889-0.2,2.028-1.105,3.13-1.98c1.196-0.951,2.382-1.901,3.575-2.28c1.261-0.402,2.069-0.229,2.605-0.067
	c0.585,0.175,1.275,0.561,2.374,1.385c2.072,1.557,10.4,8.826,11.839,10.083c1.159-0.523,6.31-2.74,13.309-4.283
	c-0.608-3.732-2.878-7.146-6.32-9.94c-4.796,2.015-10.662,3.066-16.395,0.266c-0.03-0.012-3.133-1.481-6.193-1.409
	c-4.549,0.105-6.521,2.074-8.605,4.158L21.438,14.471z"/>
<path fill="#FFFFFF" d="M47.947,23.622c-0.098-0.086-9.793-8.569-11.99-10.22c-1.271-0.954-1.979-1.197-2.721-1.292
	c-0.386-0.049-0.919,0.022-1.293,0.124c-1.021,0.278-2.357,1.172-3.543,2.111c-1.228,0.979-2.386,1.9-3.46,2.141
	c-1.374,0.308-3.049-0.055-3.815-0.574c-0.31-0.208-0.527-0.449-0.632-0.694c-0.282-0.655,0.238-1.178,0.324-1.267l2.675-2.894
	c0.31-0.311,0.623-0.621,0.943-0.927c-0.863,0.113-1.659,0.333-2.436,0.55c-0.971,0.273-1.903,0.532-2.846,0.531
	c-0.395,0-2.503-0.346-2.904-0.455c-2.42-0.663-4.546-1.308-7.719-2.79C4.727,10.8,2.184,14.34,1.448,18.241
	c0.547,0.143,1.427,0.407,1.796,0.487c8.608,1.914,11.289,3.886,11.773,4.297c0.529-0.586,1.287-0.957,2.135-0.957
	c0.952,0.002,1.81,0.48,2.333,1.22c0.492-0.389,1.172-0.722,2.051-0.722c0.399,0,0.814,0.074,1.23,0.217
	c0.972,0.332,1.473,0.979,1.733,1.564c0.326-0.147,0.727-0.256,1.198-0.254c0.463,0,0.944,0.106,1.431,0.314
	c1.588,0.682,1.835,2.24,1.691,3.415c0.112-0.013,0.226-0.018,0.342-0.018c1.881,0,3.412,1.53,3.412,3.412
	c0,0.582-0.15,1.132-0.408,1.612c0.511,0.287,1.817,0.938,2.961,0.793c0.916-0.115,1.264-0.429,1.388-0.604
	c0.086-0.121,0.176-0.262,0.091-0.364l-2.427-2.697c0,0-0.401-0.379-0.269-0.523c0.138-0.151,0.384,0.063,0.559,0.21
	c1.236,1.033,2.746,2.589,2.746,2.589c0.026,0.018,0.126,0.214,0.684,0.315c0.48,0.086,1.331,0.036,1.92-0.447
	c0.148-0.122,0.298-0.275,0.42-0.433c-0.008,0.008-0.016,0.02-0.025,0.022c0.619-0.794-0.069-1.6-0.069-1.6l-2.835-3.184
	c0,0-0.406-0.373-0.268-0.525c0.122-0.13,0.384,0.065,0.561,0.214c0.898,0.751,2.166,2.024,3.382,3.215
	c0.238,0.174,1.307,0.835,2.721-0.095c0.859-0.563,1.031-1.254,1.007-1.777c-0.061-0.69-0.6-1.183-0.6-1.183l-3.874-3.895
	c0,0-0.408-0.349-0.263-0.525c0.118-0.148,0.384,0.065,0.558,0.211c1.235,1.031,4.575,4.093,4.575,4.093
	c0.047,0.034,1.202,0.855,2.627-0.052c0.509-0.327,0.836-0.816,0.863-1.388C48.647,24.21,47.947,23.622,47.947,23.622"/>
<path fill="#FFFFFF" d="M29.161,28.56c-0.601-0.007-1.257,0.35-1.343,0.296c-0.048-0.03,0.037-0.271,0.093-0.409
	c0.056-0.14,0.849-2.518-1.08-3.344c-1.474-0.636-2.376,0.079-2.687,0.399c-0.081,0.084-0.118,0.079-0.127-0.029
	c-0.029-0.429-0.222-1.589-1.495-1.977c-1.819-0.558-2.989,0.713-3.286,1.172c-0.133-1.038-1.01-1.842-2.084-1.844
	c-1.167-0.001-2.112,0.944-2.114,2.11c-0.001,1.166,0.946,2.113,2.113,2.113c0.566,0,1.079-0.226,1.459-0.589
	c0.012,0.011,0.017,0.031,0.01,0.07c-0.089,0.522-0.252,2.421,1.736,3.194c0.798,0.311,1.476,0.079,2.038-0.315
	c0.167-0.118,0.195-0.067,0.171,0.088c-0.072,0.489,0.019,1.534,1.483,2.129c1.116,0.454,1.775-0.011,2.208-0.41
	c0.189-0.172,0.24-0.143,0.25,0.122c0.054,1.412,1.226,2.534,2.652,2.536c1.468,0,2.659-1.186,2.659-2.655
	C31.817,29.749,30.63,28.575,29.161,28.56"/>
<path fill="#060E9F" d="M48.321,22.607c-2.986-2.606-9.889-8.606-11.758-10.01c-1.067-0.803-1.795-1.228-2.435-1.417
	c-0.287-0.087-0.685-0.186-1.197-0.186c-0.475,0-0.986,0.086-1.52,0.255c-1.207,0.381-2.412,1.338-3.575,2.263l-0.06,0.048
	c-1.083,0.862-2.205,1.754-3.052,1.944c-0.371,0.083-0.752,0.126-1.131,0.126c-0.949-0.002-1.803-0.276-2.123-0.684
	c-0.053-0.067-0.019-0.176,0.104-0.334l0.017-0.021l2.627-2.833c2.058-2.057,4.001-4,8.476-4.103
	c0.073-0.001,0.149-0.002,0.223-0.002c2.786,0.001,5.568,1.248,5.88,1.393c2.611,1.274,5.306,1.92,8.016,1.922
	c2.824,0.001,5.737-0.699,8.799-2.108c-0.342-0.288-0.698-0.568-1.063-0.842c-2.691,1.166-5.256,1.755-7.729,1.754
	c-2.526-0.001-5.05-0.608-7.5-1.804c-0.13-0.061-3.204-1.511-6.403-1.512c-0.083,0-0.167,0.001-0.251,0.002
	c-3.757,0.087-5.875,1.423-7.297,2.592c-1.386,0.033-2.58,0.367-3.643,0.664c-0.948,0.264-1.767,0.493-2.566,0.492
	c-0.328,0-0.922-0.03-0.975-0.032c-0.918-0.028-5.546-1.162-9.227-2.556C8.582,7.884,8.22,8.159,7.869,8.44
	c3.845,1.575,8.525,2.795,10.002,2.89c0.41,0.027,0.848,0.074,1.287,0.075c0.978,0,1.953-0.273,2.897-0.538
	c0.557-0.157,1.17-0.327,1.818-0.451c-0.172,0.169-0.344,0.342-0.518,0.516l-2.67,2.887c-0.209,0.212-0.667,0.778-0.365,1.476
	c0.121,0.281,0.362,0.549,0.703,0.779c0.636,0.427,1.775,0.717,2.833,0.718c0.4,0,0.781-0.039,1.13-0.119
	c1.118-0.251,2.292-1.185,3.536-2.174c0.991-0.787,2.397-1.788,3.476-2.08c0.301-0.082,0.671-0.134,0.968-0.134
	c0.089,0.001,0.173,0.004,0.251,0.016c0.712,0.089,1.4,0.332,2.629,1.254c2.191,1.646,11.887,10.128,11.982,10.211
	c0.007,0.006,0.625,0.54,0.582,1.425c-0.023,0.496-0.297,0.936-0.774,1.238c-0.414,0.264-0.84,0.396-1.273,0.396
	c-0.647,0-1.094-0.303-1.123-0.325c-0.035-0.027-3.357-3.075-4.58-4.098c-0.194-0.162-0.383-0.305-0.574-0.305
	c-0.103-0.002-0.193,0.042-0.255,0.119c-0.193,0.238,0.024,0.565,0.277,0.781l3.88,3.899c0.006,0.005,0.483,0.454,0.537,1.052
	c0.03,0.647-0.279,1.187-0.922,1.608c-0.458,0.302-0.922,0.454-1.375,0.454c-0.596,0-1.014-0.271-1.107-0.335l-0.557-0.548
	c-1.018-1.002-2.068-2.037-2.835-2.68c-0.188-0.154-0.389-0.299-0.579-0.299c-0.096,0-0.18,0.034-0.246,0.104
	c-0.087,0.098-0.148,0.273,0.071,0.564c0.09,0.118,0.196,0.217,0.196,0.217L40,30.216c0.024,0.028,0.584,0.694,0.063,1.357
	l-0.1,0.127c-0.084,0.093-0.176,0.179-0.261,0.253c-0.484,0.397-1.129,0.439-1.385,0.439c-0.137,0-0.269-0.013-0.384-0.033
	c-0.278-0.05-0.466-0.129-0.558-0.234l-0.032-0.036c-0.157-0.159-1.583-1.618-2.764-2.603c-0.156-0.131-0.351-0.296-0.551-0.296
	c-0.1,0-0.187,0.041-0.255,0.115c-0.234,0.256,0.116,0.639,0.264,0.777l2.417,2.664c-0.003,0.024-0.034,0.079-0.093,0.164
	c-0.085,0.118-0.379,0.413-1.255,0.521c-0.104,0.014-0.213,0.021-0.32,0.021c-0.904,0-1.866-0.439-2.364-0.703
	c0.226-0.477,0.344-1.001,0.344-1.53c0.001-1.988-1.614-3.605-3.602-3.607c-0.043,0-0.086,0.002-0.13,0.004
	c0.066-0.909-0.062-2.626-1.826-3.384c-0.508-0.219-1.015-0.331-1.505-0.331c-0.386,0-0.756,0.066-1.106,0.2
	c-0.365-0.711-0.971-1.228-1.763-1.498c-0.437-0.15-0.873-0.228-1.293-0.228c-0.734,0-1.41,0.216-2.015,0.646
	c-0.578-0.719-1.45-1.145-2.369-1.145c-0.805,0-1.579,0.323-2.151,0.89c-0.752-0.574-3.734-2.468-11.716-4.28
	c-0.387-0.088-1.272-0.343-1.817-0.501c-0.089,0.432-0.159,0.869-0.204,1.309c0,0,1.471,0.353,1.762,0.417
	c8.153,1.812,10.848,3.694,11.302,4.051c-0.154,0.37-0.234,0.77-0.235,1.173c-0.001,1.684,1.368,3.056,3.055,3.056
	c0.188,0,0.376-0.016,0.56-0.05c0.254,1.241,1.066,2.18,2.305,2.662c0.362,0.14,0.729,0.212,1.089,0.212
	c0.232,0,0.467-0.029,0.695-0.088c0.229,0.58,0.745,1.307,1.896,1.775c0.404,0.161,0.808,0.245,1.2,0.245
	c0.32,0,0.635-0.056,0.934-0.164c0.553,1.344,1.864,2.232,3.33,2.232c0.969,0.004,1.902-0.393,2.58-1.091
	c0.583,0.321,1.811,0.907,3.051,0.909c0.161,0,0.311-0.011,0.462-0.029c1.231-0.157,1.805-0.64,2.068-1.013
	c0.047-0.065,0.091-0.135,0.128-0.207c0.29,0.084,0.61,0.153,0.976,0.153c0.674,0,1.319-0.23,1.972-0.706
	c0.643-0.461,1.097-1.126,1.164-1.69c0-0.007,0.001-0.016,0.004-0.024c0.215,0.045,0.437,0.067,0.659,0.067
	c0.692,0,1.374-0.216,2.024-0.643c1.256-0.822,1.474-1.898,1.453-2.604c0.221,0.045,0.444,0.071,0.668,0.071
	c0.651,0,1.288-0.198,1.898-0.586c0.778-0.496,1.247-1.259,1.317-2.146c0.05-0.603-0.1-1.21-0.418-1.733
	c2.105-0.906,6.915-2.661,12.578-3.937c-0.034-0.439-0.096-0.873-0.176-1.305C54.716,19.825,49.603,22.038,48.321,22.607
	 M29.161,33.684c-1.331-0.001-2.413-1.036-2.461-2.354c-0.004-0.113-0.015-0.413-0.27-0.413c-0.104,0-0.194,0.062-0.299,0.156
	c-0.292,0.272-0.665,0.548-1.21,0.548c-0.247,0-0.514-0.059-0.796-0.174c-1.406-0.57-1.426-1.534-1.368-1.923
	c0.014-0.104,0.02-0.211-0.051-0.293l-0.087-0.079h-0.087c-0.071,0-0.145,0.03-0.245,0.1c-0.407,0.286-0.797,0.424-1.193,0.424
	c-0.219,0-0.441-0.044-0.667-0.13c-1.849-0.721-1.704-2.467-1.613-2.992c0.014-0.106-0.012-0.189-0.081-0.244l-0.131-0.107
	l-0.122,0.117c-0.361,0.347-0.832,0.539-1.328,0.539c-1.061-0.004-1.923-0.864-1.922-1.923c0.002-1.061,0.864-1.921,1.923-1.92
	c0.958,0,1.773,0.721,1.896,1.677l0.065,0.517l0.284-0.438c0.033-0.052,0.809-1.225,2.236-1.224c0.271,0,0.551,0.043,0.833,0.132
	c1.138,0.347,1.331,1.378,1.361,1.809c0.02,0.251,0.198,0.261,0.232,0.261c0.098,0,0.171-0.062,0.222-0.115
	c0.214-0.223,0.683-0.597,1.415-0.597c0.334,0.001,0.69,0.081,1.059,0.239c1.81,0.775,0.988,3.073,0.979,3.097
	c-0.156,0.383-0.161,0.55-0.017,0.648l0.072,0.032h0.054c0.081,0,0.183-0.036,0.35-0.091c0.246-0.086,0.618-0.214,0.965-0.214h0.001
	c1.362,0.016,2.468,1.123,2.468,2.469C31.629,32.578,30.521,33.684,29.161,33.684"/>
<path fill="#060E9F" d="M170.237,7.471c-1.137-1.424-2.86-2.135-5.175-2.135c-2.313,0-4.039,0.711-5.176,2.135
	c-1.137,1.423-1.704,3.104-1.704,5.045c0,1.976,0.567,3.663,1.704,5.069c1.137,1.4,2.862,2.103,5.176,2.103
	c2.314,0,4.038-0.703,5.175-2.103c1.138-1.406,1.704-3.094,1.704-5.069C171.941,10.575,171.375,8.894,170.237,7.471 M167.422,15.638
	c-0.552,0.733-1.34,1.098-2.373,1.098c-1.027,0-1.822-0.365-2.376-1.098c-0.557-0.73-0.833-1.772-0.833-3.122
	c0-1.348,0.276-2.385,0.833-3.114c0.554-0.728,1.349-1.092,2.376-1.092c1.033,0,1.821,0.364,2.373,1.092
	c0.551,0.729,0.826,1.766,0.826,3.114C168.248,13.866,167.973,14.908,167.422,15.638"/>
<path fill="#060E9F" d="M141.196,6.28c-1.151-0.584-2.471-0.879-3.955-0.879c-2.281,0-3.891,0.595-4.828,1.784
	c-0.59,0.761-0.921,1.73-0.998,2.912h3.409c0.082-0.521,0.251-0.934,0.503-1.239c0.351-0.413,0.948-0.62,1.794-0.62
	c0.754,0,1.326,0.104,1.717,0.316c0.387,0.21,0.583,0.593,0.583,1.146c0,0.455-0.253,0.789-0.761,1.004
	c-0.286,0.124-0.754,0.228-1.413,0.31l-1.208,0.149c-1.373,0.172-2.415,0.463-3.119,0.869c-1.292,0.743-1.938,1.943-1.938,3.604
	c0,1.279,0.399,2.27,1.203,2.968c0.799,0.698,1.819,0.99,3.048,1.047c7.707,0.345,7.621-4.062,7.691-4.978V9.602
	C142.925,7.976,142.349,6.867,141.196,6.28 M139.405,13.976c-0.022,1.182-0.363,1.995-1.01,2.441
	c-0.651,0.447-1.362,0.67-2.132,0.67c-0.487,0-0.902-0.136-1.24-0.402c-0.341-0.269-0.51-0.706-0.51-1.309
	c0-0.676,0.277-1.176,0.834-1.499c0.33-0.189,0.869-0.352,1.624-0.481l0.805-0.149c0.4-0.077,0.715-0.158,0.946-0.245
	c0.233-0.084,0.458-0.197,0.683-0.338V13.976z"/>
<path fill="#060E9F" d="M123.62,8.421c0.882,0,1.527,0.273,1.945,0.817c0.288,0.403,0.467,0.855,0.537,1.359h3.802
	c-0.208-1.917-0.879-3.257-2.012-4.017c-1.137-0.754-2.594-1.135-4.374-1.135c-2.094,0-3.74,0.642-4.928,1.926
	c-1.19,1.286-1.787,3.083-1.787,5.392c0,2.045,0.54,3.712,1.616,4.997c1.078,1.284,2.761,1.927,5.044,1.927
	c2.286,0,4.012-0.769,5.176-2.31c0.729-0.954,1.14-1.968,1.226-3.039h-3.79c-0.078,0.708-0.298,1.285-0.666,1.73
	c-0.365,0.442-0.981,0.666-1.853,0.666c-1.227,0-2.063-0.56-2.507-1.68c-0.241-0.599-0.365-1.391-0.365-2.377
	c0-1.034,0.124-1.863,0.365-2.49C121.511,9.013,122.368,8.421,123.62,8.421"/>
<path fill="#060E9F" d="M115.784,5.446c-7.809,0-7.347,6.915-7.347,6.915v7.024h3.543v-6.588c0-1.08,0.138-1.878,0.408-2.398
	c0.485-0.921,1.436-1.383,2.854-1.383c0.106,0,0.246,0.006,0.421,0.014c0.173,0.008,0.367,0.024,0.593,0.05V5.472
	c-0.156-0.011-0.259-0.015-0.303-0.019C115.906,5.449,115.852,5.446,115.784,5.446"/>
<path fill="#060E9F" d="M102.766,15.715c-0.148,0.212-0.309,0.396-0.484,0.537c-0.501,0.412-1.181,0.538-1.981,0.538
	c-0.76,0-1.351-0.115-1.887-0.454c-0.884-0.543-1.381-1.464-1.435-2.813h9.808c0.014-1.163-0.024-2.052-0.119-2.672
	c-0.164-1.055-0.521-1.985-1.072-2.784c-0.611-0.907-1.39-1.571-2.326-1.993c-0.938-0.418-1.994-0.628-3.165-0.628
	c-1.975,0-3.578,0.622-4.816,1.865c-1.235,1.247-1.855,3.033-1.855,5.365c0,2.49,0.686,4.287,2.056,5.391
	c1.369,1.104,2.953,1.656,4.743,1.656c2.17,0,3.859-0.653,5.064-1.963c0.65-0.69,1.057-1.371,1.229-2.044H102.766z M98.001,9.116
	c0.499-0.512,1.198-0.769,2.103-0.769c0.831,0,1.527,0.24,2.089,0.725c0.56,0.483,0.872,1.193,0.937,2.126h-6.064
	C97.191,10.322,97.505,9.629,98.001,9.116"/>
<path fill="#060E9F" d="M92.009,19.384h-3.238v-8.152c0-0.744-0.246-2.517-2.381-2.517c-1.424,0-2.454,1.026-2.454,2.517v8.152
	h-3.241v-8.152c0-0.744-0.22-2.517-2.355-2.517c-1.448,0-2.455,1.026-2.455,2.517v8.152h-3.239v-8.075
	c0-3.366,2.233-5.91,5.694-5.91c1.719,0,3.117,0.72,4.026,1.877c0.956-1.157,2.379-1.877,4.024-1.877
	c3.534,0,5.619,2.441,5.619,5.91V19.384z"/>
<path fill="#060E9F" d="M157.127,1.188c0,0-3.569-0.381-3.569,2.487l-0.004,3.796c-0.395-0.633-0.909-1.129-1.543-1.487
	c-0.631-0.357-1.356-0.538-2.174-0.538c-1.771,0-3.181,0.66-4.241,1.975c-1.06,1.32-1.586,3.219-1.586,5.516
	c0,1.993,0.536,3.627,1.612,4.9c1.072,1.27,3.182,1.829,5.051,1.829c6.528,0,6.452-5.597,6.452-5.597L157.127,1.188z
	 M152.876,15.667c-0.517,0.742-1.277,1.112-2.271,1.112c-0.999,0-1.74-0.374-2.229-1.118c-0.489-0.746-0.733-1.832-0.733-3.074
	c0-1.154,0.238-2.119,0.721-2.897c0.48-0.776,1.235-1.168,2.267-1.168c0.675,0,1.267,0.215,1.778,0.643
	c0.832,0.708,1.246,1.979,1.246,3.626C153.653,13.966,153.396,14.926,152.876,15.667"/>
<path fill="#009EE2" d="M98.526,41.88c0,0.479-0.174,0.892-0.523,1.232c-0.346,0.345-0.763,0.516-1.25,0.516h-1.771V31.312
	c0-2.394,0.808-3.896,2.138-4.907c0.876-0.672,2.185-1.311,4.635-1.311c1.654,0,3.594,0.643,4.641,1.918
	c1.174,1.435,1.664,3.036,1.664,5.123c0,2.162-0.521,3.904-1.563,5.244c-1.04,1.305-2.38,1.953-4.013,1.953
	c-0.867,0-1.632-0.154-2.292-0.461c-0.697-0.344-1.249-0.874-1.666-1.596V41.88z M104.467,32.289c0-1.336-0.261-2.364-0.784-3.084
	c-0.521-0.718-1.267-1.079-2.241-1.079c-0.936,0-1.665,0.361-2.188,1.079c-0.485,0.653-0.727,1.683-0.727,3.084
	c0,1.307,0.26,2.28,0.779,2.931c0.521,0.722,1.27,1.081,2.242,1.081c0.9,0,1.613-0.359,2.135-1.081
	C104.206,34.5,104.467,33.527,104.467,32.289"/>
<path fill="#009EE2" d="M131.544,38.198v-0.871c-0.615,0.961-1.443,1.557-2.483,1.798c-1.041,0.237-2.072,0.151-3.094-0.259
	c-1.024-0.409-1.904-1.172-2.638-2.284c-0.731-1.116-1.099-2.58-1.099-4.396c0-2.121,0.485-3.843,1.457-5.162
	c0.973-1.314,2.534-1.917,4.683-1.977c2.118-0.055,3.35,0.424,4.555,1.336c1.318,1.001,2.099,2.535,2.099,4.932v7.246
	c0.004,2.305-1.603,6.577-6.653,6.216c-3.126-0.228-4.865-1.511-5.833-4.419h3.736c0.272,0.479,0.688,0.848,1.253,1.103
	c0.562,0.26,1.129,0.325,1.688,0.206c0.562-0.121,1.075-0.454,1.538-1.002C131.21,40.116,131.474,39.294,131.544,38.198
	 M125.709,32.293c0,2.362,0.684,3.671,2.049,3.929c1.361,0.252,2.369-0.063,3.019-0.953c0.306-0.372,0.526-0.967,0.662-1.771
	c0.137-0.803,0.148-1.6,0.027-2.387c-0.116-0.79-0.4-1.491-0.845-2.107c-0.442-0.616-1.092-0.927-1.944-0.927
	c-1.16,0-1.941,0.431-2.352,1.283C125.912,30.22,125.709,31.194,125.709,32.293"/>
<path fill="#009EE2" d="M119.198,26.025c-1.151-0.584-2.473-0.878-3.955-0.878c-2.283,0-3.892,0.596-4.83,1.781
	c-0.587,0.76-0.92,1.73-0.996,2.914h3.411c0.084-0.522,0.249-0.936,0.501-1.24c0.353-0.411,0.95-0.618,1.794-0.618
	c0.758,0,1.327,0.104,1.715,0.315c0.39,0.21,0.585,0.592,0.585,1.145c0,0.455-0.253,0.791-0.761,1.006
	c-0.282,0.125-0.754,0.228-1.414,0.31l-1.206,0.146c-1.373,0.174-2.416,0.466-3.12,0.87c-1.293,0.744-1.936,1.941-1.936,3.604
	c0,1.279,0.397,2.27,1.202,2.967c0.798,0.699,1.819,0.991,3.048,1.05c7.706,0.345,7.62-4.063,7.689-4.979v-5.072
	C120.926,27.72,120.353,26.614,119.198,26.025 M117.408,33.718c-0.022,1.186-0.364,1.998-1.011,2.443
	c-0.649,0.446-1.36,0.668-2.131,0.668c-0.488,0-0.9-0.136-1.241-0.4c-0.339-0.269-0.51-0.706-0.51-1.309
	c0-0.677,0.279-1.178,0.834-1.5c0.332-0.188,0.871-0.352,1.623-0.48l0.807-0.149c0.401-0.076,0.716-0.157,0.942-0.243
	c0.235-0.086,0.46-0.198,0.687-0.341V33.718z"/>
<path fill="#009EE2" d="M148.43,27.141c-1.138-1.426-2.863-2.135-5.179-2.135c-2.31,0-4.036,0.709-5.173,2.135
	c-1.136,1.424-1.704,3.104-1.704,5.047c0,1.976,0.568,3.662,1.704,5.067c1.137,1.4,2.863,2.103,5.173,2.103
	c2.315,0,4.041-0.702,5.179-2.103c1.135-1.405,1.701-3.092,1.701-5.067C150.131,30.245,149.564,28.564,148.43,27.141
	 M145.612,35.306c-0.551,0.733-1.339,1.099-2.37,1.099c-1.028,0-1.824-0.365-2.376-1.099c-0.56-0.73-0.836-1.77-0.836-3.118
	c0-1.348,0.276-2.387,0.836-3.113c0.552-0.729,1.348-1.09,2.376-1.09c1.031,0,1.819,0.361,2.37,1.09
	c0.552,0.727,0.827,1.766,0.827,3.113C146.439,33.536,146.164,34.575,145.612,35.306"/>
</svg>
